<svg preserveAspectRatio="none" overflow="visible" style="display: block;" width="19.9997" height="19.9997" viewBox="0 0 19.9997 19.9997" fill="none" xmlns="http://www.w3.org/2000/svg">
<g id="Icon" clip-path="url(#clip0_0_19)">
<path id="Vector" d="M13.5331 6.46655L12.0298 10.9756C11.948 11.2211 11.8101 11.4442 11.6272 11.6272C11.4442 11.8101 11.2211 11.948 10.9756 12.0298L6.46655 13.5331L7.96986 9.02401C8.05168 8.77853 8.18953 8.55547 8.3725 8.3725C8.55547 8.18953 8.77853 8.05168 9.02401 7.96986L13.5331 6.46655Z" stroke="#00D3F2" stroke-width="1.66664" stroke-linecap="round" stroke-linejoin="round"/>
<path id="Vector_2" d="M9.99983 18.333C14.6021 18.333 18.333 14.6021 18.333 9.99983C18.333 5.39753 14.6021 1.66664 9.99983 1.66664C5.39753 1.66664 1.66664 5.39753 1.66664 9.99983C1.66664 14.6021 5.39753 18.333 9.99983 18.333Z" stroke="#00D3F2" stroke-width="1.66664" stroke-linecap="round" stroke-linejoin="round"/>
</g>
<defs>
<clipPath id="clip0_0_19">
<rect width="19.9997" height="19.9997" fill="white"/>
</clipPath>
</defs>
</svg>
